<?xml version="1.0" encoding="utf-8"?>
<!-- Generator: Adobe Illustrator 25.3.0, SVG Export Plug-In . SVG Version: 6.00 Build 0)  -->
<svg version="1.1" id="Capa_1" xmlns="http://www.w3.org/2000/svg" xmlns:xlink="http://www.w3.org/1999/xlink" x="0px" y="0px"
	 viewBox="0 0 335.06 100" style="enable-background:new 0 0 335.06 100;" xml:space="preserve">
<style type="text/css">
	.st0{fill:#1D3176;}
	.st1{fill:#00ADE9;}
</style>
<g>
	<g>
		<path class="st0" d="M127.64,69.83V25.64h11.02l12.43,26.52l12.43-26.52h11.02v44.19h-9.22V41.91l-10.38,22.16h-7.69l-10.38-22.16
			v27.93H127.64z"/>
		<path class="st0" d="M181.83,69.83V25.64h9.22v44.19H181.83z"/>
		<path class="st0" d="M198.35,69.83V25.64h9.22v44.19H198.35z"/>
		<path class="st0" d="M211.71,33.97v-8.33h36.12v8.33h-13.45v35.87h-9.22V33.97H211.71z"/>
		<path class="st0" d="M252.76,69.83V25.64h21.52c7.17,0,10.76,3.59,10.76,10.76v7.3c0,5.34-1.99,8.67-5.96,9.99l7.24,14.22
			l-1.09,1.92h-7.94l-7.81-15.37h-7.49v15.37H252.76z M261.98,46.13h11.91c1.28,0,1.92-0.64,1.92-1.92v-8.33
			c0-1.28-0.64-1.92-1.92-1.92h-11.91V46.13z"/>
		<path class="st0" d="M288.85,68.1l13.13-42.47h14.09L329.2,68.1l-1.15,1.73h-7.69l-2.69-8.97h-17.29l-2.69,8.97H290L288.85,68.1z
			 M302.88,52.54h12.3l-5.64-18.57h-1.02L302.88,52.54z"/>
	</g>
	<g>
		<g>
			<polygon class="st0" points="5.86,83.94 5.86,12.58 32.36,5.53 49.87,40.18 65.79,40.12 83.27,5.54 109.81,12.58 109.81,83.94 
				70.65,83.94 70.65,75.65 101.52,75.65 101.52,18.96 87.64,15.27 70.9,48.39 44.78,48.49 27.99,15.27 14.15,18.95 14.15,75.65 
				45.02,75.65 45.02,83.94 			"/>
		</g>
		<g>
			<path class="st1" d="M57.84,99.24c-9.52,0-17.27-7.75-17.27-17.27c0-0.99,0.14-2.03,0.44-3.19l8.04,2.03
				c-0.16,0.63-0.18,1-0.18,1.16c0,4.95,4.03,8.98,8.98,8.98s8.98-4.03,8.98-8.98c0-0.16-0.02-0.53-0.18-1.16l8.04-2.04
				c0.29,1.16,0.44,2.2,0.44,3.19C75.11,91.49,67.36,99.24,57.84,99.24z"/>
		</g>
		<g>
			<path class="st1" d="M49.04,80.81L41,78.78c2.14-8.48,12.48-21.05,13.65-22.46l3.19-3.82l3.19,3.82
				c1.17,1.41,11.51,13.98,13.65,22.46l-8.04,2.03c-1.04-4.11-5.4-10.58-8.8-15.12C54.44,70.23,50.08,76.7,49.04,80.81z"/>
		</g>
	</g>
</g>
</svg>
