<svg id="Capa_1" data-name="Capa 1" xmlns="http://www.w3.org/2000/svg" viewBox="0 0 323.34 93.7"><defs><style>.cls-1{fill:#fff;}.cls-2{fill:#00ade9;}</style></defs><path class="cls-1" d="M127.64,69.83V25.64h11l12.42,26.52,12.43-26.52h11V69.83H165.3V41.91L154.93,64.07h-7.69L136.86,41.91V69.83Z" transform="translate(-5.86 -5.53)"/><path class="cls-1" d="M181.83,69.83V25.64h9.22V69.83Z" transform="translate(-5.86 -5.53)"/><path class="cls-1" d="M198.35,69.83V25.64h9.22V69.83Z" transform="translate(-5.86 -5.53)"/><path class="cls-1" d="M211.71,34V25.64h36.12V34H234.38V69.83h-9.22V34Z" transform="translate(-5.86 -5.53)"/><path class="cls-1" d="M252.76,69.83V25.64h21.52Q285,25.64,285,36.4v7.3q0,8-6,10l7.24,14.22-1.09,1.92h-7.94l-7.81-15.37H262V69.83ZM262,46.13H273.9a1.7,1.7,0,0,0,1.92-1.92V35.89A1.7,1.7,0,0,0,273.9,34H262Z" transform="translate(-5.86 -5.53)"/><path class="cls-1" d="M288.85,68.1,302,25.64h14.09L329.2,68.1l-1.15,1.73h-7.69l-2.69-9H300.38l-2.69,9H290Zm14-15.56h12.3L309.54,34h-1Z" transform="translate(-5.86 -5.53)"/><polygon class="cls-1" points="0 78.4 0 7.04 26.5 0 44.02 34.64 59.93 34.58 77.41 0 103.96 7.04 103.96 78.4 64.79 78.4 64.79 70.11 95.66 70.11 95.66 13.42 81.78 9.74 65.04 42.85 38.93 42.96 22.13 9.74 8.29 13.42 8.29 70.11 39.16 70.11 39.16 78.4 0 78.4"/><path class="cls-2" d="M57.84,99.24A17.29,17.29,0,0,1,40.57,82,13.07,13.07,0,0,1,41,78.78l8,2A4.77,4.77,0,0,0,48.86,82a9,9,0,0,0,18,0,4.77,4.77,0,0,0-.18-1.16l8-2a13.19,13.19,0,0,1,.44,3.2A17.29,17.29,0,0,1,57.84,99.24Z" transform="translate(-5.86 -5.53)"/><path class="cls-2" d="M49,80.81l-8-2c2.14-8.48,12.48-21.06,13.65-22.46l3.19-3.82L61,56.32c1.17,1.4,11.51,14,13.65,22.46l-8,2c-1-4.11-5.4-10.58-8.79-15.12C54.44,70.23,50.08,76.7,49,80.81Z" transform="translate(-5.86 -5.53)"/></svg>