<svg id="Capa_1" data-name="Capa 1" xmlns="http://www.w3.org/2000/svg" viewBox="0 0 20 20"><defs><style>.cls-1{fill:#fff;}</style></defs><path class="cls-1" d="M17.08,11.13h0c-.9-3.55-5.22-8.8-5.71-9.39L10,.15,8.71,1.74C8.22,2.33,3.9,7.58,3,11.13H3a5.49,5.49,0,0,0-.18,1.33,7.22,7.22,0,1,0,14.43,0A5.49,5.49,0,0,0,17.08,11.13Zm-7,5.08a3.75,3.75,0,0,1-3.75-3.75A1.9,1.9,0,0,1,6.37,12h0C6.8,10.26,8.62,7.56,10,5.66c1.42,1.9,3.24,4.6,3.68,6.32h0a2.23,2.23,0,0,1,.07.48A3.75,3.75,0,0,1,10,16.21Z"/></svg>